<svg xmlns="http://www.w3.org/2000/svg" version="1.1" xmlns:xlink="http://www.w3.org/1999/xlink" xmlns:svgjs="http://svgjs.dev/svgjs" width="1000" height="1000" viewBox="0 0 1000 1000"><rect width="1000" height="1000" fill="#000000"></rect><g transform="matrix(0.7,0,0,0.7,149.57575757575756,282.1265587044535)"><svg viewBox="0 0 396 247" data-background-color="#333366" preserveAspectRatio="xMidYMid meet" height="623" width="1000" xmlns="http://www.w3.org/2000/svg" xmlns:xlink="http://www.w3.org/1999/xlink"><g id="tight-bounds" transform="matrix(1,0,0,1,0.2400000000000091,-0.09999999999999432)"><svg viewBox="0 0 395.52 247.2" height="247.2" width="395.52"><g><svg></svg></g><g><svg viewBox="0 0 395.52 247.2" height="247.2" width="395.52"><g transform="matrix(1,0,0,1,75.54432,81.24153246447202)"><svg viewBox="0 0 244.43135999999998 84.71693507105594" height="84.71693507105594" width="244.43135999999998"><g><svg viewBox="0 0 244.43135999999998 84.71693507105594" height="84.71693507105594" width="244.43135999999998"><g><svg viewBox="0 0 244.43135999999998 84.71693507105594" height="84.71693507105594" width="244.43135999999998"><g><svg viewBox="0 0 244.43135999999998 84.71693507105594" height="84.71693507105594" width="244.43135999999998"><g id="textblocktransform"><svg viewBox="0 0 244.43135999999998 84.71693507105594" height="84.71693507105594" width="244.43135999999998" id="textblock"><g><svg viewBox="0 0 244.43135999999998 50.13480280340526" height="50.13480280340526" width="244.43135999999998"><g transform="matrix(1,0,0,1,0,0)"><svg width="244.43135999999998" viewBox="3.700000047683716 -38.75 252.53001403808594 51.79999923706055" height="50.13480280340526" data-palette-color="#ffff33"><path d="M30.5-29.7L30.5-29.7Q30.5-28.05 29.5-27.05 28.5-26.05 26.78-26.05 25.05-26.05 23.6-27L23.6-27Q23.95-27.85 23.95-28.8L23.95-28.8Q23.95-30.35 22.3-31.58 20.65-32.8 17.68-32.8 14.7-32.8 12.83-31.63 10.95-30.45 10.95-28.5 10.95-26.55 13.08-24.98 15.2-23.4 18.2-22.1 21.2-20.8 24.23-19.33 27.25-17.85 29.38-15.53 31.5-13.2 31.5-10.25L31.5-10.25Q31.5-5.55 27.38-2.53 23.25 0.5 17.43 0.5 11.6 0.5 7.65-1.83 3.7-4.15 3.7-7.8L3.7-7.8Q3.7-9.7 4.95-10.85 6.2-12 8.1-12 10-12 11.5-10.6L11.5-10.6Q10.3-9.4 10.3-7.75 10.3-6.1 12.23-4.9 14.15-3.7 17.48-3.7 20.8-3.7 22.93-5.2 25.05-6.7 25.05-8.9 25.05-11.1 22.93-12.73 20.8-14.35 17.8-15.63 14.8-16.9 11.78-18.3 8.75-19.7 6.63-21.93 4.5-24.15 4.5-27.05L4.5-27.05Q4.5-31.55 8.38-34.27 12.25-37 17.85-37 23.45-37 26.98-34.93 30.5-32.85 30.5-29.7ZM45.3-21.65L44.8-21.65 44.8-7.3Q44.8-5.6 45.42-4.83 46.05-4.05 47.5-4.05L47.5-4.05Q50.45-4.05 52.8-6.55L52.8-6.55Q53.35-6.5 53.75-6 54.15-5.5 54.15-4.7L54.15-4.7Q54.15-2.75 51.77-1.13 49.4 0.5 45.9 0.5 42.4 0.5 40.37-1.28 38.35-3.05 38.35-6.65L38.35-6.65 38.35-21.65Q36.4-21.7 35.47-22.45 34.55-23.2 34.55-24.3 34.55-25.4 35.45-26.05L35.45-26.05Q36.95-25.85 38.05-25.85L38.05-25.85 38.35-25.85 38.35-28.3Q38.35-30.5 36.8-31.25L36.8-31.25Q38.35-33.15 40.6-33.15L40.6-33.15Q44.8-33.15 44.8-28.15L44.8-28.15 44.8-25.85 52.65-25.85Q52.95-25.4 52.95-24.9L52.95-24.9Q52.95-23.55 51.22-22.6 49.5-21.65 45.3-21.65L45.3-21.65ZM64.25-6.65L64.25-6.65Q64.25-3.8 67.5-3.8L67.5-3.8Q70.2-3.8 72.25-6.3L72.25-6.3 72.25-11.6Q68.05-11.35 66.15-10 64.25-8.65 64.25-6.65ZM78.7-17.75L78.7-17.75 78.7-5.65Q78.7-2.7 81.3-2.05L81.3-2.05Q79.65 0.5 76.59 0.5L76.59 0.5Q73.05 0.5 72.4-3.05L72.4-3.05Q69.4 0.5 64.65 0.5L64.65 0.5Q61.35 0.5 59.3-1.2 57.25-2.9 57.25-5.95L57.25-5.95Q57.25-9.7 61.15-12 65.05-14.3 72.25-14.4L72.25-14.4 72.25-18.5Q72.25-22.85 68.8-22.85L68.8-22.85Q67.25-22.85 66.34-22.05 65.45-21.25 65.45-20.08 65.45-18.9 66.2-18.1L66.2-18.1Q64.65-16.65 62.6-16.65 60.55-16.65 59.5-17.65 58.45-18.65 58.45-20.25L58.45-20.25Q58.45-22.85 61.6-24.6 64.75-26.35 69.07-26.35 73.4-26.35 76.05-24.23 78.7-22.1 78.7-17.75ZM88.34-23.9L88.44-23.9 88.44-30.3Q88.44-34.3 90.77-36.52 93.09-38.75 96.42-38.75 99.74-38.75 101.49-37.4 103.24-36.05 103.24-34.38 103.24-32.7 101.99-32.4L101.99-32.4Q100.24-34.35 98.14-34.35L98.14-34.35Q94.89-34.35 94.89-30.3L94.89-30.3 94.89-23.9 101.69-23.9Q101.99-23.55 101.99-22.9L101.99-22.9Q101.99-21.6 100.49-20.65 98.99-19.7 95.69-19.7L95.69-19.7 94.89-19.7 94.89 5.2Q94.89 9.15 93.19 11.1 91.49 13.05 88.79 13.05L88.79 13.05Q84.89 13.05 83.59 9.25L83.59 9.25Q86.39 9.25 87.42 8.05 88.44 6.85 88.44 4.05L88.44 4.05 88.44-19.75Q84.09-20 84.09-22.1L84.09-22.1Q84.09-23.35 84.99-24L84.99-24Q86.89-23.9 88.34-23.9L88.34-23.9ZM107.64-23.9L107.74-23.9 107.74-30.3Q107.74-34.3 110.07-36.52 112.39-38.75 115.72-38.75 119.04-38.75 120.79-37.4 122.54-36.05 122.54-34.38 122.54-32.7 121.29-32.4L121.29-32.4Q119.54-34.35 117.44-34.35L117.44-34.35Q114.19-34.35 114.19-30.3L114.19-30.3 114.19-23.9 120.99-23.9Q121.29-23.55 121.29-22.9L121.29-22.9Q121.29-21.6 119.79-20.65 118.29-19.7 114.99-19.7L114.99-19.7 114.19-19.7 114.19 5.2Q114.19 9.15 112.49 11.1 110.79 13.05 108.09 13.05L108.09 13.05Q104.19 13.05 102.89 9.25L102.89 9.25Q105.69 9.25 106.72 8.05 107.74 6.85 107.74 4.05L107.74 4.05 107.74-19.75Q103.39-20 103.39-22.1L103.39-22.1Q103.39-23.35 104.29-24L104.29-24Q106.19-23.9 107.64-23.9L107.64-23.9ZM180.04-0.45L180.04-0.45Q178.44 0.35 176.64 0.35 174.84 0.35 173.81-0.63 172.79-1.6 172.59-4.1L172.59-4.1 170.99-30.2 161.29-2.1Q160.64-0.2 158.59-0.2L158.59-0.2Q157.44-0.2 156.94-0.68 156.44-1.15 156.14-2.15L156.14-2.15 146.28-30.25 144.69-4.25Q144.53-1.8 143.74-0.65 142.94 0.5 141.01 0.5 139.09 0.5 137.49-1.1L137.49-1.1Q138.69-2.2 138.84-4.6L138.84-4.6 140.89-31.55Q140.89-31.85 140.89-32.15L140.89-32.15Q140.89-34.1 139.99-35.3L139.99-35.3Q142.78-36.9 145.96-36.9 149.14-36.9 150.61-35.3 152.09-33.7 153.14-30.05L153.14-30.05 159.34-11.7 165.59-29.85Q166.79-33.95 168.64-35.43 170.49-36.9 173.29-36.9 176.09-36.9 178.19-35.9L178.19-35.9Q177.39-34.65 177.39-32.6L177.39-32.6Q177.39-32.3 177.39-31.95L177.39-31.95 179.14-4.75Q179.24-1.7 180.04-0.45ZM192.58-6.65L192.58-6.65Q192.58-3.8 195.83-3.8L195.83-3.8Q198.53-3.8 200.58-6.3L200.58-6.3 200.58-11.6Q196.38-11.35 194.48-10 192.58-8.65 192.58-6.65ZM207.03-17.75L207.03-17.75 207.03-5.65Q207.03-2.7 209.63-2.05L209.63-2.05Q207.98 0.5 204.93 0.5L204.93 0.5Q201.38 0.5 200.73-3.05L200.73-3.05Q197.73 0.5 192.98 0.5L192.98 0.5Q189.68 0.5 187.63-1.2 185.58-2.9 185.58-5.95L185.58-5.95Q185.58-9.7 189.48-12 193.38-14.3 200.58-14.4L200.58-14.4 200.58-18.5Q200.58-22.85 197.13-22.85L197.13-22.85Q195.58-22.85 194.68-22.05 193.78-21.25 193.78-20.08 193.78-18.9 194.53-18.1L194.53-18.1Q192.98-16.65 190.93-16.65 188.88-16.65 187.83-17.65 186.78-18.65 186.78-20.25L186.78-20.25Q186.78-22.85 189.93-24.6 193.08-26.35 197.41-26.35 201.73-26.35 204.38-24.23 207.03-22.1 207.03-17.75ZM222.28-21.65L221.78-21.65 221.78-7.3Q221.78-5.6 222.41-4.83 223.03-4.05 224.48-4.05L224.48-4.05Q227.43-4.05 229.78-6.55L229.78-6.55Q230.33-6.5 230.73-6 231.13-5.5 231.13-4.7L231.13-4.7Q231.13-2.75 228.76-1.13 226.38 0.5 222.88 0.5 219.38 0.5 217.36-1.28 215.33-3.05 215.33-6.65L215.33-6.65 215.33-21.65Q213.38-21.7 212.46-22.45 211.53-23.2 211.53-24.3 211.53-25.4 212.43-26.05L212.43-26.05Q213.93-25.85 215.03-25.85L215.03-25.85 215.33-25.85 215.33-28.3Q215.33-30.5 213.78-31.25L213.78-31.25Q215.33-33.15 217.58-33.15L217.58-33.15Q221.78-33.15 221.78-28.15L221.78-28.15 221.78-25.85 229.63-25.85Q229.93-25.4 229.93-24.9L229.93-24.9Q229.93-23.55 228.21-22.6 226.48-21.65 222.28-21.65L222.28-21.65ZM247.83-16.1Q248.83-16.2 249.28-16.7 249.73-17.2 249.73-18.7 249.73-20.2 248.78-21.45 247.83-22.7 246.1-22.7 244.38-22.7 242.95-20.83 241.53-18.95 241.08-15.45L241.08-15.45 247.83-16.1ZM247.83-4.15L247.83-4.15Q251.93-4.15 254.73-7.1L254.73-7.1Q255.68-6.6 255.68-5.3L255.68-5.3Q255.68-3.2 253-1.35 250.33 0.5 246.68 0.5L246.68 0.5Q241.03 0.5 237.73-2.75 234.43-6 234.43-12 234.43-18 238.05-22.18 241.68-26.35 246.93-26.35L246.93-26.35Q250.98-26.35 253.6-23.68 256.23-21 256.23-17.55L256.23-17.55Q256.23-14.95 254.93-13.78 253.63-12.6 250.58-12.55L250.58-12.55 240.93-12.25Q241.13-4.15 247.83-4.15Z" opacity="1" transform="matrix(1,0,0,1,0,0)" fill="#ffffff" class="undefined-text-0" data-fill-palette-color="primary" id="text-0"></path></svg></g></svg></g><g transform="matrix(1,0,0,1,0,61.97042651002196)"><svg viewBox="0 0 244.43135999999998 22.746508561033988" height="22.746508561033988" width="244.43135999999998"><g transform="matrix(1,0,0,1,0,0)"><svg width="244.43135999999998" viewBox="2.0999999046325684 -39.20000076293945 522.2100219726562 48.599998474121094" height="22.746508561033988" data-palette-color="#ffffff"><path d="M27.05-35.4L27.05-35.4Q26.85-33.65 26.78-32 26.7-30.35 26.7-29.5L26.7-29.5Q26.7-28.6 26.75-27.78 26.8-26.95 26.85-26.4L26.85-26.4 25.7-26.4Q25.4-29.35 24.85-31.08 24.3-32.8 22.98-33.52 21.65-34.25 19-34.25L19-34.25 14.85-34.25Q13.15-34.25 12.28-33.98 11.4-33.7 11.1-32.83 10.8-31.95 10.8-30.1L10.8-30.1 10.8-5.3Q10.8-3.5 11.1-2.6 11.4-1.7 12.28-1.43 13.15-1.15 14.85-1.15L14.85-1.15 18.5-1.15Q21.65-1.15 23.28-2 24.9-2.85 25.63-4.78 26.35-6.7 26.7-10L26.7-10 27.85-10Q27.7-8.65 27.7-6.4L27.7-6.4Q27.7-5.45 27.78-3.68 27.85-1.9 28.05 0L28.05 0Q25.5-0.1 22.3-0.13 19.1-0.15 16.6-0.15L16.6-0.15Q15.1-0.15 12.63-0.15 10.15-0.15 7.35-0.13 4.55-0.1 2.1 0L2.1 0 2.1-1Q3.8-1.1 4.67-1.4 5.55-1.7 5.85-2.6 6.15-3.5 6.15-5.3L6.15-5.3 6.15-30.1Q6.15-31.95 5.85-32.83 5.55-33.7 4.67-34.02 3.8-34.35 2.1-34.4L2.1-34.4 2.1-35.4Q4.55-35.35 7.35-35.3 10.15-35.25 12.63-35.25 15.1-35.25 16.6-35.25L16.6-35.25Q18.9-35.25 21.83-35.27 24.75-35.3 27.05-35.4ZM9.3-18.3L18.45-18.3Q18.45-18.3 18.45-17.8 18.45-17.3 18.45-17.3L18.45-17.3 9.3-17.3Q9.3-17.3 9.3-17.8 9.3-18.3 9.3-18.3L9.3-18.3ZM18.75-24.9L19.9-24.9Q19.7-22.05 19.73-20.55 19.75-19.05 19.75-17.8L19.75-17.8Q19.75-16.55 19.8-15.05 19.85-13.55 20.05-10.7L20.05-10.7 18.9-10.7Q18.7-12.3 18.43-13.83 18.15-15.35 17.23-16.32 16.3-17.3 14.1-17.3L14.1-17.3 14.1-18.3Q16.3-18.3 17.18-19.45 18.05-20.6 18.3-22.15 18.55-23.7 18.75-24.9L18.75-24.9ZM48.4-26.45L48.4-26.45Q50.15-26.45 51.45-25.95 52.75-25.45 53.6-24.55L53.6-24.55Q54.55-23.55 54.9-21.95 55.25-20.35 55.25-18L55.25-18 55.25-4.65Q55.25-2.55 56.12-1.8 57-1.05 59.05-1.05L59.05-1.05 59.05 0Q58.2-0.05 56.45-0.13 54.7-0.2 53.05-0.2L53.05-0.2Q51.4-0.2 49.82-0.13 48.25-0.05 47.45 0L47.45 0 47.45-1.05Q49.25-1.05 50-1.8 50.75-2.55 50.75-4.65L50.75-4.65 50.75-19.1Q50.75-20.65 50.55-21.95 50.35-23.25 49.55-24.05 48.75-24.85 46.95-24.85L46.95-24.85Q45-24.85 43.47-23.65 41.95-22.45 41.07-20.38 40.2-18.3 40.2-15.75L40.2-15.75 40.2-4.65Q40.2-2.55 40.95-1.8 41.7-1.05 43.5-1.05L43.5-1.05 43.5 0Q42.7-0.05 41.12-0.13 39.55-0.2 37.9-0.2L37.9-0.2Q36.25-0.2 34.5-0.13 32.75-0.05 31.9 0L31.9 0 31.9-1.05Q33.95-1.05 34.82-1.8 35.7-2.55 35.7-4.65L35.7-4.65 35.7-20.3Q35.7-22.55 34.9-23.63 34.1-24.7 31.9-24.7L31.9-24.7 31.9-25.75Q33.5-25.6 35-25.6L35-25.6Q36.45-25.6 37.77-25.78 39.1-25.95 40.2-26.3L40.2-26.3 40.2-20.4Q41.5-23.65 43.75-25.05 46-26.45 48.4-26.45ZM63.45-26.45L63.45-26.45Q65.2-26.45 66.5-25.95 67.8-25.45 68.65-24.55L68.65-24.55Q69.6-23.55 69.95-21.95 70.3-20.35 70.3-18L70.3-18 70.3-4.65Q70.3-2.55 71.17-1.8 72.05-1.05 74.1-1.05L74.1-1.05 74.1 0Q73.25-0.05 71.5-0.13 69.75-0.2 68.1-0.2L68.1-0.2Q66.45-0.2 64.87-0.13 63.3-0.05 62.5 0L62.5 0 62.5-1.05Q64.3-1.05 65.05-1.8 65.8-2.55 65.8-4.65L65.8-4.65 65.8-19.1Q65.8-20.65 65.6-21.95 65.4-23.25 64.6-24.05 63.8-24.85 62-24.85L62-24.85Q59.1-24.85 57.17-22.25 55.25-19.65 55.25-15.8L55.25-15.8 55.1-20.45Q56.45-23.9 58.75-25.18 61.05-26.45 63.45-26.45ZM84.25-26.3L84.25-26.3 84.25 4.4Q84.25 6.55 85.52 7.28 86.8 8 89.05 8L89.05 8 89.05 9.05Q87.95 9 86 8.93 84.05 8.85 81.85 8.85L81.85 8.85Q80.3 8.85 78.77 8.93 77.25 9 76.45 9.05L76.45 9.05 76.45 8Q78.25 8 79 7.35 79.75 6.7 79.75 4.9L79.75 4.9 79.75-20.3Q79.75-22.55 78.95-23.63 78.15-24.7 75.95-24.7L75.95-24.7 75.95-25.75Q77.55-25.6 79.05-25.6L79.05-25.6Q80.5-25.6 81.82-25.78 83.15-25.95 84.25-26.3ZM92.25-26.45L92.25-26.45Q96.2-26.45 98.87-23.28 101.55-20.1 101.55-14.05L101.55-14.05Q101.55-10.45 100.37-7.05 99.2-3.65 96.7-1.48 94.2 0.7 90.1 0.7L90.1 0.7Q87.75 0.7 86.02-0.4 84.3-1.5 83.7-3.05L83.7-3.05 84.2-3.75Q84.9-2.35 86.22-1.4 87.55-0.45 89.55-0.45L89.55-0.45Q92.35-0.45 93.9-2.2 95.45-3.95 96.07-6.88 96.7-9.8 96.7-13.35L96.7-13.35Q96.7-17.35 96.05-19.9 95.4-22.45 94.1-23.7 92.8-24.95 90.9-24.95L90.9-24.95Q88.45-24.95 86.45-22.93 84.45-20.9 83.9-16.8L83.9-16.8 83.3-17.5Q83.85-21.75 86.32-24.1 88.8-26.45 92.25-26.45ZM113.29-39.2L113.29-39.2 113.29-4.65Q113.29-2.55 114.17-1.8 115.04-1.05 117.09-1.05L117.09-1.05 117.09 0Q116.24-0.05 114.52-0.13 112.79-0.2 111.04-0.2L111.04-0.2Q109.34-0.2 107.59-0.13 105.84-0.05 104.99 0L104.99 0 104.99-1.05Q107.04-1.05 107.92-1.8 108.79-2.55 108.79-4.65L108.79-4.65 108.79-33.2Q108.79-35.45 107.99-36.52 107.19-37.6 104.99-37.6L104.99-37.6 104.99-38.65Q106.59-38.5 108.09-38.5L108.09-38.5Q109.54-38.5 110.87-38.68 112.19-38.85 113.29-39.2ZM131.39-26.45L131.39-26.45Q134.59-26.45 137.14-25.05 139.69-23.65 141.22-20.65 142.74-17.65 142.74-12.85L142.74-12.85Q142.74-8.05 141.22-5.08 139.69-2.1 137.14-0.7 134.59 0.7 131.39 0.7L131.39 0.7Q128.24 0.7 125.67-0.7 123.09-2.1 121.57-5.08 120.04-8.05 120.04-12.85L120.04-12.85Q120.04-17.65 121.57-20.65 123.09-23.65 125.67-25.05 128.24-26.45 131.39-26.45ZM131.39-25.45L131.39-25.45Q128.54-25.45 126.72-22.5 124.89-19.55 124.89-12.85L124.89-12.85Q124.89-6.15 126.72-3.23 128.54-0.3 131.39-0.3L131.39-0.3Q134.24-0.3 136.06-3.23 137.89-6.15 137.89-12.85L137.89-12.85Q137.89-19.55 136.06-22.5 134.24-25.45 131.39-25.45ZM169.34-25.75L169.34-25.75 169.34-24.75Q168.39-24.65 167.59-23.9 166.79-23.15 166.09-21.25L166.09-21.25 157.89 0.25 157.04 0.25 147.84-21.9Q146.89-23.85 145.96-24.28 145.04-24.7 144.44-24.7L144.44-24.7 144.44-25.75Q145.54-25.6 146.74-25.53 147.94-25.45 149.34-25.45L149.34-25.45Q150.89-25.45 152.61-25.55 154.34-25.65 155.84-25.75L155.84-25.75 155.84-24.7Q154.59-24.7 153.61-24.53 152.64-24.35 152.39-23.48 152.14-22.6 152.99-20.5L152.99-20.5 159.14-5.25 158.84-5.15 164.54-20.05Q165.49-22.55 164.74-23.55 163.99-24.55 161.34-24.75L161.34-24.75 161.34-25.75Q162.64-25.7 163.51-25.65 164.39-25.6 165.54-25.6L165.54-25.6Q166.69-25.6 167.61-25.65 168.54-25.7 169.34-25.75ZM156.94-0.15L157.89 0.25 156.19 4.6Q155.24 7.05 154.04 8.1L154.04 8.1Q153.24 8.85 152.14 9.13 151.04 9.4 150.14 9.4L150.14 9.4Q149.19 9.4 148.41 9.05 147.64 8.7 147.19 8.03 146.74 7.35 146.74 6.4L146.74 6.4Q146.74 5.2 147.44 4.48 148.14 3.75 149.39 3.75L149.39 3.75Q150.44 3.75 151.19 4.35 151.94 4.95 151.94 6.1L151.94 6.1Q151.94 6.95 151.54 7.5 151.14 8.05 150.59 8.35L150.59 8.35Q150.69 8.4 150.76 8.4 150.84 8.4 150.89 8.4L150.89 8.4Q152.24 8.4 153.29 7.48 154.34 6.55 155.14 4.5L155.14 4.5 156.94-0.15ZM182.99-26.45L182.99-26.45Q187.39-26.45 189.86-23.78 192.34-21.1 192.34-15.45L192.34-15.45 174.69-15.45 174.64-16.4 187.54-16.4Q187.64-18.85 187.14-20.93 186.64-23 185.56-24.25 184.49-25.5 182.79-25.5L182.79-25.5Q180.49-25.5 178.71-23.2 176.94-20.9 176.59-15.9L176.59-15.9 176.74-15.7Q176.64-14.95 176.59-14.05 176.54-13.15 176.54-12.25L176.54-12.25Q176.54-8.85 177.64-6.4 178.74-3.95 180.51-2.68 182.29-1.4 184.19-1.4L184.19-1.4Q186.44-1.4 188.34-2.5 190.24-3.6 191.54-6.4L191.54-6.4 192.54-6Q191.99-4.35 190.74-2.8 189.49-1.25 187.59-0.28 185.69 0.7 183.19 0.7L183.19 0.7Q179.59 0.7 177.01-0.95 174.44-2.6 173.06-5.53 171.69-8.45 171.69-12.25L171.69-12.25Q171.69-16.65 173.09-19.83 174.49-23 177.04-24.73 179.59-26.45 182.99-26.45ZM208.28-26.45L208.28-26.45Q212.68-26.45 215.16-23.78 217.63-21.1 217.63-15.45L217.63-15.45 199.98-15.45 199.93-16.4 212.83-16.4Q212.93-18.85 212.43-20.93 211.93-23 210.86-24.25 209.78-25.5 208.08-25.5L208.08-25.5Q205.78-25.5 204.01-23.2 202.23-20.9 201.88-15.9L201.88-15.9 202.03-15.7Q201.93-14.95 201.88-14.05 201.83-13.15 201.83-12.25L201.83-12.25Q201.83-8.85 202.93-6.4 204.03-3.95 205.81-2.68 207.58-1.4 209.48-1.4L209.48-1.4Q211.73-1.4 213.63-2.5 215.53-3.6 216.83-6.4L216.83-6.4 217.83-6Q217.28-4.35 216.03-2.8 214.78-1.25 212.88-0.28 210.98 0.7 208.48 0.7L208.48 0.7Q204.88 0.7 202.31-0.95 199.73-2.6 198.36-5.53 196.98-8.45 196.98-12.25L196.98-12.25Q196.98-16.65 198.38-19.83 199.78-23 202.33-24.73 204.88-26.45 208.28-26.45ZM273.88-35.4L273.88-35.4 273.88-34.4Q272.18-34.35 271.3-34.02 270.43-33.7 270.13-32.83 269.83-31.95 269.83-30.1L269.83-30.1 269.83-5.3Q269.83-3.5 270.13-2.6 270.43-1.7 271.3-1.4 272.18-1.1 273.88-1L273.88-1 273.88 0Q272.73-0.1 271-0.13 269.28-0.15 267.53-0.15L267.53-0.15Q265.58-0.15 263.88-0.13 262.18-0.1 261.13 0L261.13 0 261.13-1Q262.83-1.1 263.7-1.4 264.58-1.7 264.88-2.6 265.18-3.5 265.18-5.3L265.18-5.3 265.18-32.8 265.38-32.65 253.13 0.25 252.33 0.25 239.73-32.2 239.73-5.8Q239.73-4 240.05-2.98 240.38-1.95 241.35-1.53 242.33-1.1 244.28-1L244.28-1 244.28 0Q243.38-0.1 241.93-0.13 240.48-0.15 239.18-0.15L239.18-0.15Q237.93-0.15 236.65-0.13 235.38-0.1 234.53 0L234.53 0 234.53-1Q236.23-1.1 237.1-1.53 237.98-1.95 238.28-2.98 238.58-4 238.58-5.8L238.58-5.8 238.58-30.1Q238.58-31.95 238.28-32.83 237.98-33.7 237.1-34.02 236.23-34.35 234.53-34.4L234.53-34.4 234.53-35.4Q235.38-35.35 236.65-35.3 237.93-35.25 239.18-35.25L239.18-35.25Q240.28-35.25 241.45-35.3 242.63-35.35 243.43-35.4L243.43-35.4 254.78-5.5 253.93-5.1 265.18-35.25Q265.78-35.25 266.35-35.25 266.93-35.25 267.53-35.25L267.53-35.25Q269.28-35.25 271-35.3 272.73-35.35 273.88-35.4ZM283.88 0.35L283.88 0.35Q280.63 0.35 279.15-1.28 277.68-2.9 277.68-5.6L277.68-5.6Q277.68-7.7 278.7-9.08 279.73-10.45 281.33-11.33 282.93-12.2 284.7-12.83 286.48-13.45 288.08-14.05 289.68-14.65 290.7-15.4 291.73-16.15 291.73-17.3L291.73-17.3 291.73-20.4Q291.73-22.5 291.1-23.6 290.48-24.7 289.43-25.08 288.38-25.45 287.08-25.45L287.08-25.45Q285.83-25.45 284.4-25.1 282.98-24.75 282.13-23.65L282.13-23.65Q283.08-23.45 283.78-22.65 284.48-21.85 284.48-20.6L284.48-20.6Q284.48-19.35 283.68-18.63 282.88-17.9 281.63-17.9L281.63-17.9Q280.18-17.9 279.5-18.82 278.83-19.75 278.83-20.9L278.83-20.9Q278.83-22.2 279.48-23 280.13-23.8 281.13-24.5L281.13-24.5Q282.28-25.3 284.1-25.88 285.93-26.45 288.23-26.45L288.23-26.45Q290.28-26.45 291.73-25.98 293.18-25.5 294.13-24.6L294.13-24.6Q295.43-23.4 295.83-21.68 296.23-19.95 296.23-17.55L296.23-17.55 296.23-3.65Q296.23-2.45 296.58-1.88 296.93-1.3 297.78-1.3L297.78-1.3Q298.48-1.3 299-1.6 299.53-1.9 300.03-2.35L300.03-2.35 300.58-1.5Q299.53-0.7 298.58-0.18 297.63 0.35 296.03 0.35L296.03 0.35Q293.43 0.35 292.58-1 291.73-2.35 291.73-4.1L291.73-4.1Q290.13-1.45 288.1-0.55 286.08 0.35 283.88 0.35ZM286.08-1.65L286.08-1.65Q287.58-1.65 289.03-2.53 290.48-3.4 291.73-5.45L291.73-5.45 291.73-15.25Q290.98-14.15 289.4-13.5 287.83-12.85 286.15-12.08 284.48-11.3 283.28-9.98 282.08-8.65 282.08-6.2L282.08-6.2Q282.08-3.9 283.23-2.78 284.38-1.65 286.08-1.65ZM318.87-26.45L318.87-26.45Q320.77-26.45 322.05-25.95 323.32-25.45 324.17-24.55L324.17-24.55Q325.12-23.55 325.52-22.05 325.92-20.55 325.92-18L325.92-18 325.92-4.65Q325.92-2.55 326.8-1.8 327.67-1.05 329.72-1.05L329.72-1.05 329.72 0Q328.87-0.05 327.12-0.13 325.37-0.2 323.72-0.2L323.72-0.2Q322.07-0.2 320.5-0.13 318.92-0.05 318.12 0L318.12 0 318.12-1.05Q319.92-1.05 320.67-1.8 321.42-2.55 321.42-4.65L321.42-4.65 321.42-19.1Q321.42-20.65 321.17-21.95 320.92-23.25 320.05-24.05 319.17-24.85 317.37-24.85L317.37-24.85Q314.22-24.85 312.3-22.23 310.37-19.6 310.37-15.75L310.37-15.75 310.37-4.65Q310.37-2.55 311.12-1.8 311.87-1.05 313.67-1.05L313.67-1.05 313.67 0Q312.87-0.05 311.3-0.13 309.72-0.2 308.07-0.2L308.07-0.2Q306.42-0.2 304.67-0.13 302.92-0.05 302.07 0L302.07 0 302.07-1.05Q304.12-1.05 305-1.8 305.87-2.55 305.87-4.65L305.87-4.65 305.87-20.3Q305.87-22.55 305.07-23.63 304.27-24.7 302.07-24.7L302.07-24.7 302.07-25.75Q303.67-25.6 305.17-25.6L305.17-25.6Q306.62-25.6 307.95-25.78 309.27-25.95 310.37-26.3L310.37-26.3 310.37-20.4Q311.67-23.8 314-25.13 316.32-26.45 318.87-26.45ZM338.62 0.35L338.62 0.35Q335.37 0.35 333.9-1.28 332.42-2.9 332.42-5.6L332.42-5.6Q332.42-7.7 333.45-9.08 334.47-10.45 336.07-11.33 337.67-12.2 339.45-12.83 341.22-13.45 342.82-14.05 344.42-14.65 345.45-15.4 346.47-16.15 346.47-17.3L346.47-17.3 346.47-20.4Q346.47-22.5 345.85-23.6 345.22-24.7 344.17-25.08 343.12-25.45 341.82-25.45L341.82-25.45Q340.57-25.45 339.15-25.1 337.72-24.75 336.87-23.65L336.87-23.65Q337.82-23.45 338.52-22.65 339.22-21.85 339.22-20.6L339.22-20.6Q339.22-19.35 338.42-18.63 337.62-17.9 336.37-17.9L336.37-17.9Q334.92-17.9 334.25-18.82 333.57-19.75 333.57-20.9L333.57-20.9Q333.57-22.2 334.22-23 334.87-23.8 335.87-24.5L335.87-24.5Q337.02-25.3 338.85-25.88 340.67-26.45 342.97-26.45L342.97-26.45Q345.02-26.45 346.47-25.98 347.92-25.5 348.87-24.6L348.87-24.6Q350.17-23.4 350.57-21.68 350.97-19.95 350.97-17.55L350.97-17.55 350.97-3.65Q350.97-2.45 351.32-1.88 351.67-1.3 352.52-1.3L352.52-1.3Q353.22-1.3 353.75-1.6 354.27-1.9 354.77-2.35L354.77-2.35 355.32-1.5Q354.27-0.7 353.32-0.18 352.37 0.35 350.77 0.35L350.77 0.35Q348.17 0.35 347.32-1 346.47-2.35 346.47-4.1L346.47-4.1Q344.87-1.45 342.85-0.55 340.82 0.35 338.62 0.35ZM340.82-1.65L340.82-1.65Q342.32-1.65 343.77-2.53 345.22-3.4 346.47-5.45L346.47-5.45 346.47-15.25Q345.72-14.15 344.15-13.5 342.57-12.85 340.9-12.08 339.22-11.3 338.02-9.98 336.82-8.65 336.82-6.2L336.82-6.2Q336.82-3.9 337.97-2.78 339.12-1.65 340.82-1.65ZM366.02 9.4L366.02 9.4Q363.37 9.4 361.02 8.85 358.67 8.3 357.24 7.13 355.82 5.95 355.82 4.15L355.82 4.15Q355.82 2.4 357.22 1.15 358.62-0.1 361.02-0.75L361.02-0.75 361.32 0.05Q360.22 0.4 359.57 1.45 358.92 2.5 358.92 3.8L358.92 3.8Q358.92 6.1 361.04 7.33 363.17 8.55 366.57 8.55L366.57 8.55Q368.82 8.55 370.97 7.98 373.12 7.4 374.52 6.05 375.92 4.7 375.92 2.5L375.92 2.5Q375.92 0.85 374.74-0.23 373.57-1.3 370.12-1.3L370.12-1.3 366.42-1.3Q364.82-1.3 363.32-1.55 361.82-1.8 360.87-2.6 359.92-3.4 359.92-5.05L359.92-5.05Q359.92-6.75 361.32-8.33 362.72-9.9 366.47-11.55L366.47-11.55 367.07-11.1Q365.37-10.2 364.12-9.28 362.87-8.35 362.87-7.1L362.87-7.1Q362.87-5.5 365.27-5.5L365.27-5.5 371.52-5.5Q374.62-5.5 376.99-4.13 379.37-2.75 379.37 0.4L379.37 0.4Q379.37 2.75 377.87 4.8 376.37 6.85 373.39 8.13 370.42 9.4 366.02 9.4ZM366.27-10.65L366.27-10.65Q362.57-10.65 360.04-12.55 357.52-14.45 357.52-18.55L357.52-18.55Q357.52-22.7 360.04-24.58 362.57-26.45 366.27-26.45L366.27-26.45Q369.97-26.45 372.49-24.58 375.02-22.7 375.02-18.55L375.02-18.55Q375.02-14.45 372.49-12.55 369.97-10.65 366.27-10.65ZM366.27-11.55L366.27-11.55Q368.17-11.55 369.24-13.05 370.32-14.55 370.32-18.55L370.32-18.55Q370.32-22.55 369.24-24.05 368.17-25.55 366.27-25.55L366.27-25.55Q364.42-25.55 363.32-24.05 362.22-22.55 362.22-18.55L362.22-18.55Q362.22-14.55 363.32-13.05 364.42-11.55 366.27-11.55ZM373.47-22.3L373.47-22.3 372.57-22.65Q373.27-24.35 374.97-25.65 376.67-26.95 378.52-26.95L378.52-26.95Q379.82-26.95 380.62-26.23 381.42-25.5 381.42-24.05L381.42-24.05Q381.42-22.5 380.59-21.88 379.77-21.25 378.92-21.25L378.92-21.25Q378.17-21.25 377.52-21.78 376.87-22.3 376.77-23.45 376.67-24.6 377.47-26.4L377.47-26.4 378.12-26.25Q376.02-25.45 375.12-24.58 374.22-23.7 373.47-22.3ZM394.87-26.45L394.87-26.45Q399.27-26.45 401.74-23.78 404.22-21.1 404.22-15.45L404.22-15.45 386.57-15.45 386.52-16.4 399.42-16.4Q399.52-18.85 399.02-20.93 398.52-23 397.44-24.25 396.37-25.5 394.67-25.5L394.67-25.5Q392.37-25.5 390.59-23.2 388.82-20.9 388.47-15.9L388.47-15.9 388.62-15.7Q388.52-14.95 388.47-14.05 388.42-13.15 388.42-12.25L388.42-12.25Q388.42-8.85 389.52-6.4 390.62-3.95 392.39-2.68 394.17-1.4 396.07-1.4L396.07-1.4Q398.32-1.4 400.22-2.5 402.12-3.6 403.42-6.4L403.42-6.4 404.42-6Q403.87-4.35 402.62-2.8 401.37-1.25 399.47-0.28 397.57 0.7 395.07 0.7L395.07 0.7Q391.47 0.7 388.89-0.95 386.32-2.6 384.94-5.53 383.57-8.45 383.57-12.25L383.57-12.25Q383.57-16.65 384.97-19.83 386.37-23 388.92-24.73 391.47-26.45 394.87-26.45ZM424.51-26.45L424.51-26.45Q426.26-26.45 427.56-25.95 428.86-25.45 429.71-24.55L429.71-24.55Q430.66-23.55 431.01-21.95 431.36-20.35 431.36-18L431.36-18 431.36-4.65Q431.36-2.55 432.24-1.8 433.11-1.05 435.16-1.05L435.16-1.05 435.16 0Q434.31-0.05 432.56-0.13 430.81-0.2 429.16-0.2L429.16-0.2Q427.51-0.2 425.94-0.13 424.36-0.05 423.56 0L423.56 0 423.56-1.05Q425.36-1.05 426.11-1.8 426.86-2.55 426.86-4.65L426.86-4.65 426.86-19.1Q426.86-20.65 426.66-21.95 426.46-23.25 425.66-24.05 424.86-24.85 423.06-24.85L423.06-24.85Q421.11-24.85 419.59-23.65 418.06-22.45 417.19-20.38 416.31-18.3 416.31-15.75L416.31-15.75 416.31-4.65Q416.31-2.55 417.06-1.8 417.81-1.05 419.61-1.05L419.61-1.05 419.61 0Q418.81-0.05 417.24-0.13 415.66-0.2 414.01-0.2L414.01-0.2Q412.36-0.2 410.61-0.13 408.86-0.05 408.01 0L408.01 0 408.01-1.05Q410.06-1.05 410.94-1.8 411.81-2.55 411.81-4.65L411.81-4.65 411.81-20.3Q411.81-22.55 411.01-23.63 410.21-24.7 408.01-24.7L408.01-24.7 408.01-25.75Q409.61-25.6 411.11-25.6L411.11-25.6Q412.56-25.6 413.89-25.78 415.21-25.95 416.31-26.3L416.31-26.3 416.31-20.4Q417.61-23.65 419.86-25.05 422.11-26.45 424.51-26.45ZM439.56-26.45L439.56-26.45Q441.31-26.45 442.61-25.95 443.91-25.45 444.76-24.55L444.76-24.55Q445.71-23.55 446.06-21.95 446.41-20.35 446.41-18L446.41-18 446.41-4.65Q446.41-2.55 447.29-1.8 448.16-1.05 450.21-1.05L450.21-1.05 450.21 0Q449.36-0.05 447.61-0.13 445.86-0.2 444.21-0.2L444.21-0.2Q442.56-0.2 440.99-0.13 439.41-0.05 438.61 0L438.61 0 438.61-1.05Q440.41-1.05 441.16-1.8 441.91-2.55 441.91-4.65L441.91-4.65 441.91-19.1Q441.91-20.65 441.71-21.95 441.51-23.25 440.71-24.05 439.91-24.85 438.11-24.85L438.11-24.85Q435.21-24.85 433.29-22.25 431.36-19.65 431.36-15.8L431.36-15.8 431.21-20.45Q432.56-23.9 434.86-25.18 437.16-26.45 439.56-26.45ZM464.56-26.45L464.56-26.45Q468.96-26.45 471.44-23.78 473.91-21.1 473.91-15.45L473.91-15.45 456.26-15.45 456.21-16.4 469.11-16.4Q469.21-18.85 468.71-20.93 468.21-23 467.14-24.25 466.06-25.5 464.36-25.5L464.36-25.5Q462.06-25.5 460.29-23.2 458.51-20.9 458.16-15.9L458.16-15.9 458.31-15.7Q458.21-14.95 458.16-14.05 458.11-13.15 458.11-12.25L458.11-12.25Q458.11-8.85 459.21-6.4 460.31-3.95 462.09-2.68 463.86-1.4 465.76-1.4L465.76-1.4Q468.01-1.4 469.91-2.5 471.81-3.6 473.11-6.4L473.11-6.4 474.11-6Q473.56-4.35 472.31-2.8 471.06-1.25 469.16-0.28 467.26 0.7 464.76 0.7L464.76 0.7Q461.16 0.7 458.59-0.95 456.01-2.6 454.64-5.53 453.26-8.45 453.26-12.25L453.26-12.25Q453.26-16.65 454.66-19.83 456.06-23 458.61-24.73 461.16-26.45 464.56-26.45ZM494.51-26.45L494.51-26.45Q496.41-26.45 497.68-25.95 498.96-25.45 499.81-24.55L499.81-24.55Q500.76-23.55 501.16-22.05 501.56-20.55 501.56-18L501.56-18 501.56-4.65Q501.56-2.55 502.43-1.8 503.31-1.05 505.36-1.05L505.36-1.05 505.36 0Q504.51-0.05 502.76-0.13 501.01-0.2 499.36-0.2L499.36-0.2Q497.71-0.2 496.13-0.13 494.56-0.05 493.76 0L493.76 0 493.76-1.05Q495.56-1.05 496.31-1.8 497.06-2.55 497.06-4.65L497.06-4.65 497.06-19.1Q497.06-20.65 496.81-21.95 496.56-23.25 495.68-24.05 494.81-24.85 493.01-24.85L493.01-24.85Q489.86-24.85 487.93-22.23 486.01-19.6 486.01-15.75L486.01-15.75 486.01-4.65Q486.01-2.55 486.76-1.8 487.51-1.05 489.31-1.05L489.31-1.05 489.31 0Q488.51-0.05 486.93-0.13 485.36-0.2 483.71-0.2L483.71-0.2Q482.06-0.2 480.31-0.13 478.56-0.05 477.71 0L477.71 0 477.71-1.05Q479.76-1.05 480.63-1.8 481.51-2.55 481.51-4.65L481.51-4.65 481.51-20.3Q481.51-22.55 480.71-23.63 479.91-24.7 477.71-24.7L477.71-24.7 477.71-25.75Q479.31-25.6 480.81-25.6L480.81-25.6Q482.26-25.6 483.58-25.78 484.91-25.95 486.01-26.3L486.01-26.3 486.01-20.4Q487.31-23.8 489.63-25.13 491.96-26.45 494.51-26.45ZM515.61-34.05L515.61-34.05 515.61-25.7 523.01-25.7 523.01-24.7 515.61-24.7 515.61-5.35Q515.61-3 516.46-2.05 517.31-1.1 518.81-1.1L518.81-1.1Q520.31-1.1 521.41-2.33 522.51-3.55 523.31-6.45L523.31-6.45 524.31-6.2Q523.81-3.3 522.33-1.3 520.86 0.7 517.81 0.7L517.81 0.7Q516.11 0.7 515.01 0.28 513.91-0.15 513.06-0.95L513.06-0.95Q511.96-2.1 511.53-3.7 511.11-5.3 511.11-7.95L511.11-7.95 511.11-24.7 506.31-24.7 506.31-25.7 511.11-25.7 511.11-33.35Q512.36-33.4 513.51-33.55 514.66-33.7 515.61-34.05Z" opacity="1" transform="matrix(1,0,0,1,0,0)" fill="#ffffff" class="undefined-text-1" data-fill-palette-color="secondary" id="text-1"></path></svg></g></svg></g></svg></g></svg></g></svg></g></svg></g></svg></g><path d="M219.954 75.242L219.954 14.74 2.233 14.74 2.233 232.46 219.954 232.46 219.954 171.958 215.432 171.958 215.432 227.939 6.754 227.939 6.754 19.261 215.432 19.261 215.432 75.242Z" fill="#ffffff" stroke="transparent" data-fill-palette-color="primary"></path></svg></g><defs></defs></svg><rect width="395.52" height="247.2" fill="none" stroke="none" visibility="hidden"></rect></g></svg></g></svg>